# xmcd
#
# Track frame offsets:
# 150
# 89620
# 176747
#
# Disc length: 3490 seconds
#
#
# Revision: 1
# Processed by: cddbd v1.5.2PL0 Copyright (c) Steve Scherf et al.
# Submitted via: FreeRIP 2.96 
#
DISCID=210da003
DTITLE=Becvar, Bruce and Brian - Evening
DYEAR=1997
DGENRE=New Age
TTITLE0=Vata_evening
TTITLE1=Pitta_evening
TTITLE2=Kapha_evening
EXTD=
EXTT0=
EXTT1=
EXTT2=
PLAYORDER=
